<?xml version="1.0" encoding="UTF-8" standalone="no"?><svg xmlns="http://www.w3.org/2000/svg" xmlns:xlink="http://www.w3.org/1999/xlink" fill="#ff7518" height="44.2" preserveAspectRatio="xMidYMid meet" version="1" viewBox="2.9 2.8 44.8 44.2" width="44.8" zoomAndPan="magnify"><g id="change1_1"><path d="M17.408,25.716c-2.336,4.54-5.946,9.647-13.81,17.85c-0.378,0.378-0.587,0.881-0.587,1.415s0.208,1.037,0.585,1.413 c0.377,0.379,0.88,0.587,1.415,0.587c0.536,0,1.054-0.217,1.423-0.596c8.988-9.229,12.78-15.195,14.995-19.738 C20.019,26.233,18.668,25.898,17.408,25.716z" fill="inherit"/></g><g id="change1_2"><path d="M38.484,11.516c-0.315-0.315-0.679-0.607-1.074-0.872c-6.614,8.51-8.087,14.639-9.271,19.642 c-0.926,3.904-1.594,6.725-4.516,9.649c-1.178,1.177-2.969,1.824-5.041,1.824c-1.471,0-2.97-0.354-4.338-0.966 c-0.837,0.99-1.754,2.033-2.741,3.121c2.154,1.204,4.594,1.86,7.045,1.86c3.153,0,5.96-1.07,7.903-3.014 c3.729-3.728,4.629-7.532,5.581-11.561c1.117-4.717,2.387-10.008,8.102-17.535C39.692,12.903,39.139,12.171,38.484,11.516z" fill="inherit"/></g><g id="change1_3"><path d="M28.303,22.508c-0.568-0.176-1.134-0.35-1.71-0.536c-3.679-1.187-7.483-2.414-11.114-2.414 c-3.532,0-6.412,1.163-8.804,3.555c-3.811,3.809-3.393,10.264-0.797,15.056c1.06-1.18,2.011-2.28,2.865-3.306 c-1.254-3.15-1.327-6.836,0.76-8.923c1.622-1.622,3.537-2.377,6.027-2.377c2.968,0,6.304,1.076,9.896,2.235 c0.55,0.177,1.101,0.346,1.652,0.518C27.409,25.117,27.802,23.853,28.303,22.508z" fill="inherit"/></g><g id="change1_4"><path d="M47.081,15.462c-0.47-2.906-2.057-5.891-4.354-8.188c-2.164-2.165-5.37-3.674-8.575-4.038 c-3.443-0.388-6.407,0.387-8.806,2.422c-0.082,0.056-0.165,0.11-0.241,0.176c-0.155,0.133-0.277,0.275-0.417,0.412 c-0.011,0.011-0.024,0.02-0.035,0.031c-0.005,0.005-0.01,0.013-0.015,0.018c-2.325,2.297-2.749,5.067-3.374,8.109 c-0.23,1.122-0.497,2.364-0.87,3.731c1.297,0.273,2.589,0.625,3.871,1.01c0.399-1.477,0.686-2.812,0.917-3.937 c0.541-2.634,0.925-4.463,2.252-6.065c0.015-0.014,0.033-0.024,0.047-0.038c2.089-2.089,4.423-2.098,6.221-1.895 c2.335,0.265,4.652,1.346,6.198,2.892c1.717,1.717,2.895,3.903,3.233,5.998c0.366,2.269,0.072,4.168-1.554,5.888 c-0.017,0.015-0.035,0.025-0.051,0.041c-1.396,1.396-3.044,2.069-5.252,2.093c-0.58,1.393-1.021,2.7-1.379,3.94 c0.433,0.037,0.856,0.063,1.264,0.063c2.913,0,5.335-0.827,7.372-2.519c0.162-0.111,0.312-0.225,0.426-0.334 c0.121-0.116,0.217-0.238,0.331-0.355c0.021-0.021,0.045-0.039,0.066-0.061c0.028-0.028,0.049-0.062,0.075-0.091 C46.942,22.086,47.651,18.996,47.081,15.462z" fill="inherit"/></g><g id="change1_5"><path d="M44.141,5.859c0.479,0.479,0.928,0.988,1.348,1.517c0.31-0.324,0.614-0.65,0.934-0.969c0.778-0.779,0.778-2.048,0-2.827 c-0.756-0.757-2.075-0.756-2.829,0c-0.328,0.328-0.641,0.655-0.958,0.983C43.172,4.966,43.679,5.397,44.141,5.859z" fill="inherit"/></g></svg>